<?xml version="1.0" encoding="iso-8859-1"?>
<!-- Generator: Adobe Illustrator 19.0.0, SVG Export Plug-In . SVG Version: 6.00 Build 0)  -->
<svg version="1.1" id="Layer_1" xmlns="http://www.w3.org/2000/svg" xmlns:xlink="http://www.w3.org/1999/xlink" x="0px" y="0px" fill="white" width="16" height="16"
	 viewBox="0 0 512 512" style="enable-background:new 0 0 512 512;" xml:space="preserve">
<g>
	<g>
		<path d="M256.012,0c-141.156,0-256,114.844-256,256s114.844,256,256,256c141.148,0,255.976-114.844,255.976-256
			S397.16,0,256.012,0z M351.324,391.5c-23.724,13.772-50.784,20.776-78.256,20.776C205.9,412.276,145.248,368,124.532,304h-20.06
			c-11.028,0-19.996-8.976-19.996-20c0-11.028,8.968-20,19.996-20h12.688c-0.164-4-0.244-5.444-0.244-8c0-2.556,0.08-4,0.244-8
			h-12.688c-11.028,0-19.996-8.976-19.996-20c0-11.028,8.968-20,19.996-20h20.06c20.716-64,81.368-107.876,148.532-107.876
			c27.472,0,54.536,7.352,78.256,21.108c9.528,5.54,12.784,17.832,7.252,27.372c-3.568,6.136-10.2,9.976-17.316,9.976
			c-3.496,0-6.956-0.928-10.004-2.688c-17.644-10.232-37.756-15.78-58.192-15.78c-45.916,0-86.768,27.888-105.668,67.888h93.22
			c11.02,0,19.996,8.972,19.996,20c0,11.024-8.976,20-19.996,20H157.188c-0.188,4-0.28,5.304-0.28,8s0.092,4,0.28,8h103.424
			c11.02,0,19.996,8.972,19.996,20c0,11.024-8.976,20-19.996,20h-93.22c18.904,40,59.752,68.292,105.672,68.292
			c20.432,0,40.548-5.26,58.184-15.496c3.048-1.772,6.516-2.64,10.02-2.64c7.108,0,13.744,3.848,17.308,9.996
			C364.108,373.688,360.848,385.972,351.324,391.5z"/>
	</g>
</g>
<g>
</g>
<g>
</g>
<g>
</g>
<g>
</g>
<g>
</g>
<g>
</g>
<g>
</g>
<g>
</g>
<g>
</g>
<g>
</g>
<g>
</g>
<g>
</g>
<g>
</g>
<g>
</g>
<g>
</g>
</svg>
