<svg version="1.2" xmlns="http://www.w3.org/2000/svg" viewBox="0 0 512 512" width="512" height="512">
	<title>ref-svg</title>
	<style>
		.s0 { fill: #000000 } 
	</style>
	<g id="Layer">
		<path id="Layer" class="s0" d="m162.7 23.1c-4.2 2.5-4 4.4 4.9 37.5 4.7 17.5 9 32.6 9.5 33.6 1.4 2.7 5.4 4 8.4 2.8 5.2-2 5-3.6-4.1-38.2-7.1-26.9-9-32.7-11-34.6-2.7-2.4-4.9-2.7-7.7-1.1z"/>
		<path id="Layer" class="s0" d="m228.1 23.9c-1.1 1.1-2.5 3.9-3.1 6.3-0.6 2.4-4.5 16.7-8.6 32-4.1 15.2-7.4 28.3-7.4 29.1 0 0.8 0.8 2.5 1.8 3.8 2.2 2.6 7.5 3.1 9.7 0.8 1.6-1.6 18.5-63.2 18.5-67.3 0-3.1-3.6-6.6-6.7-6.6-1.3 0-3.2 0.9-4.2 1.9z"/>
		<path id="Layer" class="s0" d="m104.5 57.5c-1.4 1.3-2.5 3.4-2.5 4.7 0 1.6 7.1 9.3 24.7 27 26.5 26.5 27.7 27.4 32.3 22.8 4.5-4.5 3.7-5.8-22.8-32.2-17.8-17.9-25.4-24.8-27-24.8-1.3 0-3.4 1.1-4.7 2.5z"/>
		<path id="Layer" fill-rule="evenodd" class="s0" d="m352.7 68c4.3 1.1 11.6 3.9 16.3 6.2 8.4 4.1 9 4.6 66.6 62.2 64.4 64.4 62.3 62 67.9 81.1 10.3 35.5-4.2 81.2-36.4 114.8-20.9 21.8-42.3 34.8-69.8 42.4-8.8 2.5-11.4 2.8-26.3 2.8-18.8 0-24.3-1.1-37.5-7.5-10.1-4.9-18.1-11.2-24.6-19.5-2.8-3.6-5.6-6.5-6.2-6.5-0.7 0-34 32.9-74.2 73-37.6 37.6-66 62.3-71 66.6-0.5-0.2-8.8 2.8-14.2-2.1-2.3-2-28.6-26.2-67.5-65.2-62.1-62.1-68.4-61.6-69.3-73.5-0.7-8.3 12.8-17.6 118.7-123.4 73.7-73.6 123.2-122.3 127.8-125.7 20.6-15.2 42.5-24.6 64.6-27.6 9.5-1.3 25.7-0.4 35.1 1.9zm-195.9 416.3q-0.2 0.1 0.7-0.7c0.2 0.1-0.1 0.3-0.7 0.7zm78.7-340.3c-0.6 0-11 10-23.3 22.3 0 0-21.6 20.4-21.7 22 0 1.6 36.8 37.5 36.8 37.5l37.2 37.2 45.5-45.5-36.8-36.8c-20.2-20.2-37.2-36.7-37.7-36.7zm154.7 41.7c-13.5 5.4-27.3 14.1-38.2 23.9-3.6 3.3-50.8 51.1-104.9 106.4-54.1 55.3-104.3 106.5-111.5 113.8l-13.1 13.2 30 30 70-69.9c38.5-38.4 71.4-70.6 73.2-71.5 7.2-3.6 16-0.7 21.2 6.8 7.8 11.3 21.1 20.4 35.6 24.1 8.8 2.3 26.8 2.2 38-0.3 55.3-12.3 102.4-67.6 102.5-120.3 0-19.6-5.6-34.5-17.5-46.4-8-8.1-16.1-12.7-26.7-15.4-18.5-4.7-37.6-2.9-58.6 5.6z"/>
		<path id="Layer" class="s0" d="m398.4 233c-15.9 5.2-30.6 19.9-36.4 36.3-2.7 7.7-2.7 19.6 0.1 25.7 9.7 21.5 39.6 21.2 61.5-0.5 20.5-20.4 21.7-49.6 2.4-59.9-7.3-4-18.5-4.6-27.6-1.6z"/>
		<path id="Layer" class="s0" d="m70.6 115.2c-2.7 3.7-1.6 8.8 2.1 10.3 3.1 1.2 64.5 17.5 65.9 17.5 4.2 0 6.9-7.5 4.1-11.3-1.4-1.9-61.8-18.7-67.4-18.7-2.2 0-3.7 0.7-4.7 2.2z"/>
		<path id="Layer" class="s0" d="m105.5 170.5c-17 4.6-31.9 8.8-33.2 9.4-5.5 2.5-3.5 11.4 2.7 11.9 5 0.4 66.1-16.3 67.7-18.5 2.9-3.9 0.9-9.8-3.7-10.7-1.5-0.3-15.3 3-33.5 7.9z"/>
	</g>
</svg>