<?xml version="1.0" standalone="no"?>
<!DOCTYPE svg PUBLIC "-//W3C//DTD SVG 1.0//EN" "http://www.w3.org/TR/2001/REC-SVG-20010904/DTD/svg10.dtd">
<svg xmlns="http://www.w3.org/2000/svg" xmlns:xlink="http://www.w3.org/1999/xlink" id="body_1" width="15" height="15">

<g transform="matrix(0.9375 0 0 0.9375 0 0)">
	<g transform="matrix(0.94117653 0 0 0.94117653 0 0)">
		<g transform="matrix(0.9444444 0 0 0.9444444 0 0)">
			<g transform="matrix(0.035928145 0 0 0.036144577 0 0)">
				<g>
                    <path d="M147.5 -0.5C 215.833 -0.5 284.167 -0.5 352.5 -0.5C 352.5 8.83333 352.5 18.1667 352.5 27.5C 284.167 27.5 215.833 27.5 147.5 27.5C 147.5 18.1667 147.5 8.83333 147.5 -0.5z" stroke="none" fill="#FEA80A" fill-rule="nonzero" />
				</g>
				<g>
                    <path d="M145.5 -0.5C 146.167 -0.5 146.833 -0.5 147.5 -0.5C 147.5 8.83333 147.5 18.1667 147.5 27.5C 215.833 27.5 284.167 27.5 352.5 27.5C 352.5 27.8333 352.5 28.1667 352.5 28.5C 303.5 28.5 254.5 28.5 205.5 28.5C 185.833 28.5 166.167 28.5 146.5 28.5C 146.5 28.1667 146.5 27.8333 146.5 27.5C 145.646 18.1945 145.313 8.86117 145.5 -0.5z" stroke="none" fill="#FFBC33" fill-rule="nonzero" />
				</g>
				<g>
                    <path d="M352.5 -0.5C 352.833 -0.5 353.167 -0.5 353.5 -0.5C 353.5 8.83333 353.5 18.1667 353.5 27.5C 373.007 27.1697 392.341 27.503 411.5 28.5C 391.833 28.5 372.167 28.5 352.5 28.5C 352.5 28.1667 352.5 27.8333 352.5 27.5C 352.5 18.1667 352.5 8.83333 352.5 -0.5z" stroke="none" fill="#FCE3B4" fill-rule="nonzero" fill-opacity="0.28627452" />
				</g>
				<g>
                    <path d="M205.5 28.5C 254.5 28.5 303.5 28.5 352.5 28.5C 352.5 38.1667 352.5 47.8333 352.5 57.5C 372.167 57.5 391.833 57.5 411.5 57.5C 411.5 67.1667 411.5 76.8333 411.5 86.5C 420.986 87.4938 430.652 87.8271 440.5 87.5C 440.17 107.007 440.503 126.341 441.5 145.5C 450.652 146.494 459.985 146.827 469.5 146.5C 469.5 214.5 469.5 282.5 469.5 350.5C 459.985 350.173 450.652 350.506 441.5 351.5C 440.503 370.659 440.17 389.993 440.5 409.5C 430.833 409.5 421.167 409.5 411.5 409.5C 411.5 399.833 411.5 390.167 411.5 380.5C 401.833 380.5 392.167 380.5 382.5 380.5C 381.506 390.319 381.173 400.319 381.5 410.5C 391.5 410.5 401.5 410.5 411.5 410.5C 411.5 420.167 411.5 429.833 411.5 439.5C 391.833 439.5 372.167 439.5 352.5 439.5C 352.5 449.167 352.5 458.833 352.5 468.5C 283.833 468.5 215.167 468.5 146.5 468.5C 146.5 458.833 146.5 449.167 146.5 439.5C 126.833 439.5 107.167 439.5 87.5 439.5C 87.5 429.5 87.5 419.5 87.5 409.5C 77.8333 409.5 68.1667 409.5 58.5 409.5C 58.5 390.167 58.5 370.833 58.5 351.5C 49.0144 350.506 39.3478 350.173 29.5 350.5C 29.5 301.833 29.5 253.167 29.5 204.5C 39.1667 204.5 48.8333 204.5 58.5 204.5C 58.5 184.833 58.5 165.167 58.5 145.5C 58.5 135.833 58.5 126.167 58.5 116.5C 68.1667 116.5 77.8333 116.5 87.5 116.5C 88.4938 107.014 88.8271 97.3478 88.5 87.5C 98.3478 87.8271 108.014 87.4938 117.5 86.5C 117.5 76.8333 117.5 67.1667 117.5 57.5C 127.167 57.5 136.833 57.5 146.5 57.5C 166.167 57.5 185.833 57.5 205.5 57.5C 205.5 47.8333 205.5 38.1667 205.5 28.5z" stroke="none" fill="#FEDD17" fill-rule="nonzero" />
				</g>
				<g>
                    <path d="M146.5 28.5C 146.5 38.1667 146.5 47.8333 146.5 57.5C 136.833 57.5 127.167 57.5 117.5 57.5C 107.833 57.5 98.1667 57.5 88.5 57.5C 88.5 47.8333 88.5 38.1667 88.5 28.5C 107.833 28.5 127.167 28.5 146.5 28.5z" stroke="none" fill="#FEA809" fill-rule="nonzero" />
				</g>
				<g>
                    <path d="M352.5 28.5C 372.167 28.5 391.833 28.5 411.5 28.5C 412.474 37.9284 412.64 47.2617 412 56.5C 421.083 57.4845 430.249 57.8178 439.5 57.5C 440.473 67.0838 440.806 76.7504 440.5 86.5C 430.833 86.5 421.167 86.5 411.5 86.5C 411.5 76.8333 411.5 67.1667 411.5 57.5C 391.833 57.5 372.167 57.5 352.5 57.5C 352.5 47.8333 352.5 38.1667 352.5 28.5z" stroke="none" fill="#FEA910" fill-rule="nonzero" />
				</g>
				<g>
                    <path d="M146.5 28.5C 166.167 28.5 185.833 28.5 205.5 28.5C 205.5 38.1667 205.5 47.8333 205.5 57.5C 185.833 57.5 166.167 57.5 146.5 57.5C 146.5 47.8333 146.5 38.1667 146.5 28.5z" stroke="none" fill="#FEE9A9" fill-rule="nonzero" />
				</g>
				<g>
                    <path d="M86.5 57.5C 87.4938 66.9856 87.8271 76.6522 87.5 86.5C 77.8333 86.5 68.1667 86.5 58.5 86.5C 58.5 76.8333 58.5 67.1667 58.5 57.5C 67.5854 57.4296 76.9188 57.4296 86.5 57.5z" stroke="none" fill="#FEA90C" fill-rule="nonzero" />
				</g>
				<g>
                    <path d="M88.5 58.5C 97.8333 58.5 107.167 58.5 116.5 58.5C 116.5 67.8333 116.5 77.1667 116.5 86.5C 107.167 86.5 97.8333 86.5 88.5 86.5C 88.5 77.1667 88.5 67.8333 88.5 58.5z" stroke="none" fill="#FEEAA9" fill-rule="nonzero" />
				</g>
				<g>
                    <path d="M88.5 58.5C 88.5 58.1667 88.5 57.8333 88.5 57.5C 98.1667 57.5 107.833 57.5 117.5 57.5C 117.5 67.1667 117.5 76.8333 117.5 86.5C 117.167 86.5 116.833 86.5 116.5 86.5C 116.5 77.1667 116.5 67.8333 116.5 58.5C 107.167 58.5 97.8333 58.5 88.5 58.5z" stroke="none" fill="#FDE387" fill-rule="nonzero" />
				</g>
				<g>
                    <path d="M441.5 86.5C 441.167 86.5 440.833 86.5 440.5 86.5C 440.806 76.7504 440.473 67.0838 439.5 57.5C 439.81 56.2617 440.31 56.2617 441 57.5C 441.5 67.1609 441.666 76.8276 441.5 86.5z" stroke="none" fill="#FDD589" fill-rule="nonzero" fill-opacity="0.45882353" />
				</g>
				<g>
                    <path d="M146.5 27.5C 146.5 27.8333 146.5 28.1667 146.5 28.5C 127.167 28.5 107.833 28.5 88.5 28.5C 88.5 38.1667 88.5 47.8333 88.5 57.5C 88.5 57.8333 88.5 58.1667 88.5 58.5C 88.5 67.8333 88.5 77.1667 88.5 86.5C 88.1667 86.5 87.8333 86.5 87.5 86.5C 87.8271 76.6522 87.4938 66.9856 86.5 57.5C 87.4741 47.5824 87.8074 37.5824 87.5 27.5C 107.167 27.5 126.833 27.5 146.5 27.5z" stroke="none" fill="#FDD37F" fill-rule="nonzero" />
				</g>
				<g>
                    <path d="M58.5 57.5C 58.5 67.1667 58.5 76.8333 58.5 86.5C 68.1667 86.5 77.8333 86.5 87.5 86.5C 87.5 86.8333 87.5 87.1667 87.5 87.5C 77.8333 87.5 68.1667 87.5 58.5 87.5C 48.8333 87.5 39.1667 87.5 29.5 87.5C 29.5 106.833 29.5 126.167 29.5 145.5C 29.1667 145.5 28.8333 145.5 28.5 145.5C 28.5 125.833 28.5 106.167 28.5 86.5C 38.1667 86.5 47.8333 86.5 57.5 86.5C 57.1729 76.6522 57.5062 66.9856 58.5 57.5z" stroke="none" fill="#FED27F" fill-rule="nonzero" fill-opacity="0.627451" />
				</g>
				<g>
                    <path d="M58.5 87.5C 58.5 97.1667 58.5 106.833 58.5 116.5C 58.5 126.167 58.5 135.833 58.5 145.5C 48.8333 145.5 39.1667 145.5 29.5 145.5C 29.5 126.167 29.5 106.833 29.5 87.5C 39.1667 87.5 48.8333 87.5 58.5 87.5z" stroke="none" fill="#FEA909" fill-rule="nonzero" />
				</g>
				<g>
                    <path d="M470.5 93.5C 471.289 110.817 471.289 128.15 470.5 145.5C 460.833 145.5 451.167 145.5 441.5 145.5C 441.5 126.167 441.5 106.833 441.5 87.5C 451.167 87.5 460.833 87.5 470.5 87.5C 470.5 89.5 470.5 91.5 470.5 93.5z" stroke="none" fill="#FEAA12" fill-rule="nonzero" />
				</g>
				<g>
                    <path d="M58.5 87.5C 68.1667 87.5 77.8333 87.5 87.5 87.5C 87.5 97.1667 87.5 106.833 87.5 116.5C 77.8333 116.5 68.1667 116.5 58.5 116.5C 58.5 106.833 58.5 97.1667 58.5 87.5z" stroke="none" fill="#FEE9A8" fill-rule="nonzero" />
				</g>
				<g>
                    <path d="M411.5 86.5C 421.167 86.5 430.833 86.5 440.5 86.5C 440.833 86.5 441.167 86.5 441.5 86.5C 451.5 86.5 461.5 86.5 471.5 86.5C 471.802 89.0593 471.468 91.3926 470.5 93.5C 470.5 91.5 470.5 89.5 470.5 87.5C 460.833 87.5 451.167 87.5 441.5 87.5C 441.5 106.833 441.5 126.167 441.5 145.5C 440.503 126.341 440.17 107.007 440.5 87.5C 430.652 87.8271 420.986 87.4938 411.5 86.5z" stroke="none" fill="#FEC339" fill-rule="nonzero" />
				</g>
				<g>
                    <path d="M87.5 86.5C 87.8333 86.5 88.1667 86.5 88.5 86.5C 97.8333 86.5 107.167 86.5 116.5 86.5C 116.833 86.5 117.167 86.5 117.5 86.5C 108.014 87.4938 98.3478 87.8271 88.5 87.5C 88.8271 97.3478 88.4938 107.014 87.5 116.5C 87.5 106.833 87.5 97.1667 87.5 87.5C 87.5 87.1667 87.5 86.8333 87.5 86.5z" stroke="none" fill="#FCE151" fill-rule="nonzero" />
				</g>
				<g>
                    <path d="M117.5 116.5C 127.167 116.5 136.833 116.5 146.5 116.5C 146.5 126.167 146.5 135.833 146.5 145.5C 136.833 145.5 127.167 145.5 117.5 145.5C 117.5 135.833 117.5 126.167 117.5 116.5z" stroke="none" fill="#FEE9A9" fill-rule="nonzero" fill-opacity="0.9882353" />
				</g>
				<g>
                    <path d="M205.5 116.5C 254.5 116.5 303.5 116.5 352.5 116.5C 352.5 126.167 352.5 135.833 352.5 145.5C 303.5 145.5 254.5 145.5 205.5 145.5C 205.5 135.833 205.5 126.167 205.5 116.5z" stroke="none" fill="#FEA909" fill-rule="nonzero" />
				</g>
				<g>
                    <path d="M-0.5 146.5C 9.16667 146.5 18.8333 146.5 28.5 146.5C 28.5 165.833 28.5 185.167 28.5 204.5C 28.5 253.5 28.5 302.5 28.5 351.5C 18.8333 351.5 9.16667 351.5 -0.5 351.5C -0.5 283.167 -0.5 214.833 -0.5 146.5z" stroke="none" fill="#FEA80A" fill-rule="nonzero" />
				</g>
				<g>
                    <path d="M470.5 145.5C 480.167 145.5 489.833 145.5 499.5 145.5C 499.5 213.833 499.5 282.167 499.5 350.5C 489.833 350.5 480.167 350.5 470.5 350.5C 470.5 282.167 470.5 213.833 470.5 145.5z" stroke="none" fill="#FEA90A" fill-rule="nonzero" />
				</g>
				<g>
                    <path d="M29.5 146.5C 38.8333 146.5 48.1667 146.5 57.5 146.5C 57.5 165.5 57.5 184.5 57.5 203.5C 48.1667 203.5 38.8333 203.5 29.5 203.5C 29.5 184.5 29.5 165.5 29.5 146.5z" stroke="none" fill="#FEEAA9" fill-rule="nonzero" />
				</g>
				<g>
                    <path d="M-0.5 146.5C -0.5 146.167 -0.5 145.833 -0.5 145.5C 9.16667 145.5 18.8333 145.5 28.5 145.5C 28.8333 145.5 29.1667 145.5 29.5 145.5C 29.5 145.833 29.5 146.167 29.5 146.5C 29.5 165.5 29.5 184.5 29.5 203.5C 29.5 203.833 29.5 204.167 29.5 204.5C 29.1667 204.5 28.8333 204.5 28.5 204.5C 28.5 185.167 28.5 165.833 28.5 146.5C 18.8333 146.5 9.16667 146.5 -0.5 146.5z" stroke="none" fill="#FBC54E" fill-rule="nonzero" />
				</g>
				<g>
                    <path d="M176.5 145.5C 185.839 145.334 195.173 145.5 204.5 146C 205.485 155.417 205.818 164.917 205.5 174.5C 195.833 174.5 186.167 174.5 176.5 174.5C 176.5 164.833 176.5 155.167 176.5 145.5z" stroke="none" fill="#FEA909" fill-rule="nonzero" />
				</g>
				<g>
                    <path d="M29.5 146.5C 29.5 146.167 29.5 145.833 29.5 145.5C 39.1667 145.5 48.8333 145.5 58.5 145.5C 58.5 165.167 58.5 184.833 58.5 204.5C 48.8333 204.5 39.1667 204.5 29.5 204.5C 29.5 204.167 29.5 203.833 29.5 203.5C 38.8333 203.5 48.1667 203.5 57.5 203.5C 57.5 184.5 57.5 165.5 57.5 146.5C 48.1667 146.5 38.8333 146.5 29.5 146.5z" stroke="none" fill="#FDE490" fill-rule="nonzero" fill-opacity="0.9882353" />
				</g>
				<g>
                    <path d="M441.5 145.5C 451.167 145.5 460.833 145.5 470.5 145.5C 470.5 213.833 470.5 282.167 470.5 350.5C 470.5 350.833 470.5 351.167 470.5 351.5C 460.833 351.5 451.167 351.5 441.5 351.5C 450.652 350.506 459.985 350.173 469.5 350.5C 469.5 282.5 469.5 214.5 469.5 146.5C 459.985 146.827 450.652 146.494 441.5 145.5z" stroke="none" fill="#FDD414" fill-rule="nonzero" />
				</g>
				<g>
                    <path d="M176.5 145.5C 176.5 155.167 176.5 164.833 176.5 174.5C 186.167 174.5 195.833 174.5 205.5 174.5C 196.014 175.494 186.348 175.827 176.5 175.5C 176.5 184.833 176.5 194.167 176.5 203.5C 176.5 203.833 176.5 204.167 176.5 204.5C 175.506 195.014 175.173 185.348 175.5 175.5C 165.833 175.5 156.167 175.5 146.5 175.5C 155.986 174.506 165.652 174.173 175.5 174.5C 175.173 164.652 175.506 154.986 176.5 145.5z" stroke="none" fill="#FCC10E" fill-rule="nonzero" />
				</g>
				<g>
                    <path d="M146.5 175.5C 156.167 175.5 165.833 175.5 175.5 175.5C 175.173 185.348 175.506 195.014 176.5 204.5C 215.5 204.5 254.5 204.5 293.5 204.5C 293.5 214.167 293.5 223.833 293.5 233.5C 254.167 233.5 214.833 233.5 175.5 233.5C 175.5 243.5 175.5 253.5 175.5 263.5C 214.833 263.5 254.167 263.5 293.5 263.5C 293.5 273.167 293.5 282.833 293.5 292.5C 254.5 292.5 215.5 292.5 176.5 292.5C 175.506 301.986 175.173 311.652 175.5 321.5C 165.833 321.5 156.167 321.5 146.5 321.5C 146.5 311.833 146.5 302.167 146.5 292.5C 136.833 292.5 127.167 292.5 117.5 292.5C 117.5 282.833 117.5 273.167 117.5 263.5C 127.167 263.5 136.833 263.5 146.5 263.5C 146.5 253.5 146.5 243.5 146.5 233.5C 136.833 233.5 127.167 233.5 117.5 233.5C 117.5 223.833 117.5 214.167 117.5 204.5C 127.167 204.5 136.833 204.5 146.5 204.5C 146.5 194.833 146.5 185.167 146.5 175.5z" stroke="none" fill="#FEA909" fill-rule="nonzero" />
				</g>
				<g>
                    <path d="M28.5 204.5C 28.8333 204.5 29.1667 204.5 29.5 204.5C 29.5 253.167 29.5 301.833 29.5 350.5C 39.3478 350.173 49.0144 350.506 58.5 351.5C 48.8333 351.5 39.1667 351.5 29.5 351.5C 29.1667 351.5 28.8333 351.5 28.5 351.5C 28.5 302.5 28.5 253.5 28.5 204.5z" stroke="none" fill="#FDC510" fill-rule="nonzero" />
				</g>
				<g>
                    <path d="M176.5 204.5C 176.5 204.167 176.5 203.833 176.5 203.5C 215.833 203.5 255.167 203.5 294.5 203.5C 294.5 213.833 294.5 224.167 294.5 234.5C 255.167 234.5 215.833 234.5 176.5 234.5C 176.5 243.833 176.5 253.167 176.5 262.5C 215.67 262.168 254.67 262.501 293.5 263.5C 254.167 263.5 214.833 263.5 175.5 263.5C 175.5 253.5 175.5 243.5 175.5 233.5C 214.833 233.5 254.167 233.5 293.5 233.5C 293.5 223.833 293.5 214.167 293.5 204.5C 254.5 204.5 215.5 204.5 176.5 204.5z" stroke="none" fill="#FDCD12" fill-rule="nonzero" />
				</g>
				<g>
                    <path d="M176.5 292.5C 176.5 302.167 176.5 311.833 176.5 321.5C 186.348 321.173 196.014 321.506 205.5 322.5C 195.833 322.5 186.167 322.5 176.5 322.5C 176.5 331.833 176.5 341.167 176.5 350.5C 186.167 350.5 195.833 350.5 205.5 350.5C 205.5 350.833 205.5 351.167 205.5 351.5C 195.5 351.5 185.5 351.5 175.5 351.5C 175.5 341.833 175.5 332.167 175.5 322.5C 165.652 322.827 155.986 322.494 146.5 321.5C 156.167 321.5 165.833 321.5 175.5 321.5C 175.173 311.652 175.506 301.986 176.5 292.5z" stroke="none" fill="#FDBE0C" fill-rule="nonzero" />
				</g>
				<g>
                    <path d="M205.5 322.5C 205.5 331.833 205.5 341.167 205.5 350.5C 195.833 350.5 186.167 350.5 176.5 350.5C 176.5 341.167 176.5 331.833 176.5 322.5C 186.167 322.5 195.833 322.5 205.5 322.5z" stroke="none" fill="#FEA809" fill-rule="nonzero" />
				</g>
				<g>
                    <path d="M499.5 145.5C 499.833 145.5 500.167 145.5 500.5 145.5C 500.5 214.167 500.5 282.833 500.5 351.5C 490.5 351.5 480.5 351.5 470.5 351.5C 470.5 351.167 470.5 350.833 470.5 350.5C 480.167 350.5 489.833 350.5 499.5 350.5C 499.5 282.167 499.5 213.833 499.5 145.5z" stroke="none" fill="#FECB72" fill-rule="nonzero" fill-opacity="0.77254903" />
				</g>
				<g>
                    <path d="M29.5 351.5C 39.1667 351.5 48.8333 351.5 58.5 351.5C 58.5 370.833 58.5 390.167 58.5 409.5C 48.8333 409.5 39.1667 409.5 29.5 409.5C 29.5 390.167 29.5 370.833 29.5 351.5z" stroke="none" fill="#FEA909" fill-rule="nonzero" />
				</g>
				<g>
                    <path d="M441.5 351.5C 441.5 370.833 441.5 390.167 441.5 409.5C 441.5 409.833 441.5 410.167 441.5 410.5C 441.827 420.348 441.494 430.014 440.5 439.5C 440.5 429.833 440.5 420.167 440.5 410.5C 430.833 410.5 421.167 410.5 411.5 410.5C 411.5 410.167 411.5 409.833 411.5 409.5C 421.167 409.5 430.833 409.5 440.5 409.5C 440.17 389.993 440.503 370.659 441.5 351.5z" stroke="none" fill="#FEC336" fill-rule="nonzero" />
				</g>
				<g>
                    <path d="M441.5 351.5C 451.167 351.5 460.833 351.5 470.5 351.5C 470.5 352.5 470.5 353.5 470.5 354.5C 470.5 372.833 470.5 391.167 470.5 409.5C 460.833 409.5 451.167 409.5 441.5 409.5C 441.5 390.167 441.5 370.833 441.5 351.5z" stroke="none" fill="#FEA90A" fill-rule="nonzero" />
				</g>
				<g>
                    <path d="M205.5 351.5C 254.5 351.5 303.5 351.5 352.5 351.5C 352.5 361.167 352.5 370.833 352.5 380.5C 303.5 380.5 254.5 380.5 205.5 380.5C 205.5 370.833 205.5 361.167 205.5 351.5z" stroke="none" fill="#FEA909" fill-rule="nonzero" />
				</g>
				<g>
                    <path d="M28.5 351.5C 28.8333 351.5 29.1667 351.5 29.5 351.5C 29.5 370.833 29.5 390.167 29.5 409.5C 39.1667 409.5 48.8333 409.5 58.5 409.5C 58.5 419.5 58.5 429.5 58.5 439.5C 57.5062 430.014 57.1729 420.348 57.5 410.5C 47.8333 410.5 38.1667 410.5 28.5 410.5C 28.5 390.833 28.5 371.167 28.5 351.5z" stroke="none" fill="#FED487" fill-rule="nonzero" fill-opacity="0.6313726" />
				</g>
				<g>
                    <path d="M382.5 380.5C 392.167 380.5 401.833 380.5 411.5 380.5C 411.5 390.167 411.5 399.833 411.5 409.5C 401.833 409.5 392.167 409.5 382.5 409.5C 382.5 399.833 382.5 390.167 382.5 380.5z" stroke="none" fill="#FEE9A8" fill-rule="nonzero" fill-opacity="0.99215686" />
				</g>
				<g>
                    <path d="M382.5 380.5C 382.5 390.167 382.5 399.833 382.5 409.5C 392.167 409.5 401.833 409.5 411.5 409.5C 411.5 409.833 411.5 410.167 411.5 410.5C 401.5 410.5 391.5 410.5 381.5 410.5C 381.173 400.319 381.506 390.319 382.5 380.5z" stroke="none" fill="#FCE462" fill-rule="nonzero" />
				</g>
				<g>
                    <path d="M470.5 354.5C 471.497 372.993 471.83 391.659 471.5 410.5C 461.5 410.5 451.5 410.5 441.5 410.5C 441.5 410.167 441.5 409.833 441.5 409.5C 451.167 409.5 460.833 409.5 470.5 409.5C 470.5 391.167 470.5 372.833 470.5 354.5z" stroke="none" fill="#FFDFA4" fill-rule="nonzero" fill-opacity="0.5686275" />
				</g>
				<g>
                    <path d="M58.5 409.5C 68.1667 409.5 77.8333 409.5 87.5 409.5C 87.5 419.5 87.5 429.5 87.5 439.5C 77.6237 439.565 67.9571 439.565 58.5 439.5C 58.5 429.5 58.5 419.5 58.5 409.5z" stroke="none" fill="#FEA90B" fill-rule="nonzero" />
				</g>
				<g>
                    <path d="M411.5 410.5C 421.167 410.5 430.833 410.5 440.5 410.5C 440.5 420.167 440.5 429.833 440.5 439.5C 431.469 439.386 422.135 439.553 412.5 440C 412.792 449.471 412.458 458.971 411.5 468.5C 391.833 468.5 372.167 468.5 352.5 468.5C 352.5 458.833 352.5 449.167 352.5 439.5C 372.167 439.5 391.833 439.5 411.5 439.5C 411.5 429.833 411.5 420.167 411.5 410.5z" stroke="none" fill="#FEA911" fill-rule="nonzero" />
				</g>
				<g>
                    <path d="M87.5 439.5C 107.167 439.5 126.833 439.5 146.5 439.5C 146.5 449.167 146.5 458.833 146.5 468.5C 126.833 468.5 107.167 468.5 87.5 468.5C 87.5 458.833 87.5 449.167 87.5 439.5z" stroke="none" fill="#FEA90C" fill-rule="nonzero" />
				</g>
				<g>
                    <path d="M87.5 468.5C 107.167 468.5 126.833 468.5 146.5 468.5C 215.167 468.5 283.833 468.5 352.5 468.5C 352.5 468.833 352.5 469.167 352.5 469.5C 284.167 469.5 215.833 469.5 147.5 469.5C 147.5 478.833 147.5 488.167 147.5 497.5C 146.833 497.5 146.167 497.5 145.5 497.5C 145.248 488.127 145.582 478.793 146.5 469.5C 126.66 469.83 106.993 469.497 87.5 468.5z" stroke="none" fill="#FFC149" fill-rule="nonzero" />
				</g>
				<g>
                    <path d="M352.5 468.5C 372.167 468.5 391.833 468.5 411.5 468.5C 392.341 469.497 373.007 469.83 353.5 469.5C 353.5 478.833 353.5 488.167 353.5 497.5C 353.167 497.5 352.833 497.5 352.5 497.5C 352.5 488.167 352.5 478.833 352.5 469.5C 352.5 469.167 352.5 468.833 352.5 468.5z" stroke="none" fill="#FDE4B1" fill-rule="nonzero" fill-opacity="0.27058825" />
				</g>
				<g>
                    <path d="M352.5 469.5C 352.5 478.833 352.5 488.167 352.5 497.5C 284.167 497.5 215.833 497.5 147.5 497.5C 147.5 488.167 147.5 478.833 147.5 469.5C 215.833 469.5 284.167 469.5 352.5 469.5z" stroke="none" fill="#FEA809" fill-rule="nonzero" />
				</g>
			</g>
		</g>
	</g>
</g>
</svg>