<?xml version="1.0" encoding="UTF-8"?>
<svg version="1.1" viewBox="0 0 2048 445" width="1274" height="277" xmlns="http://www.w3.org/2000/svg">
<defs>
    <filter id="shadow" x="-50%" y="-50%" width="200%" height="200%">
      <feDropShadow dx="5" dy="5" stdDeviation="5" flood-color="black" flood-opacity="0.5"/>
    </filter>
 </defs>
<g filter="url(#shadow)">
<path transform="translate(789,314)" d="m0 0h17l12 2 11 7 4 5 3-9 7-4h37l13 3 9 6 7 9 4-6 7-7 11-5 6-1h19l10 3 8 5 7 7 2 4 1-11 2-4 6-3h39l12 3 9 6 3-6 6-3h87l5 3 3 4 2 10 4-12 5-4 2-1h20l6 4 3 6 2 8 2-11 5-6 3-1h19l3 2 5-1 3-1h50l7 2 4-2h59l7 1 2-1h60l4 2 6-1 2-1h52l6 3 4-1 4-2h20l7 6 10 16 1-14 3-5 6-3h16l7 4 2 8v65l-1 10-5 5-3 1h-18l-8-6-11-17-1 16-5 6-4 1h-15l-6-2v-2l-4 3-4 1h-53l-6-3-3-7v-51h-16v55l-5 5-3 1h-18l-5-3-2-2-1-4v-52h-33v51l-3 7-6 3h-17l-5-2-4-6v-53h-20l-3 1 3 4v19l-2 3h-2v2l7 1 3 5v21l-5 4-3 1h-54l-5-4-3-6-1-41-11 43-6 7-4 1h-20l-5-4-3-6-2-6-4 11-4 4-4 1h-19l-5-2-4-8-13-51h-16v54l-5 6-4 1h-17l-5-2-4-6v-53h-13v10l-4 10-4 6 1 4 8 16 1 5-2 7-2 2-4 1h-20l-7-4-6-10-2-4-1 9-5 8-5 1h-17l-5-3-3-4-1-10-7 9-10 6-9 3-12 1-15-2-10-5-7-6-6-10-3-14-7 6-10 4-6 1h-12v16l-4 6-5 2h-17l-5-2-3-3-2-7-8 7-12 5-15 2-13-1-12-4-8-6-6-10v-10l5-5 7-3-8-8-4-10v-15l4-9 6-7 12-6zm43 32-8 4 5 5 5 4v-13zm111 0-3 2v27l3 2h6l3-2v-26l-3-3zm-74 1v5h6l1-4zm150 0v3h6v-2zm477-1-3 1 2 6v16l-4 7 7 1v-31zm-266 3 1 3z" fill="#FDFDFD"/>
<path transform="translate(308)" d="m0 0h18l21 3 16 4 20 9 9 6 10 7 14 13 9 11 9 14 8 17 6 18 2 13v33l-3 16-7 21-6 12-7 11-7 9-8 9-8 7-5 4-10 7-10 6-20 8-22 5h-39l-15-4-13-4-17-8-15-9-14-8-18-6-13-3-16-5-12-6-12-9-11-12-6-10-5-13-1-7v-12l2-8 3-2h6l5 5 5 9 4 5 9 7 5 2 5-1v-7l-5-9-15-16-13-12-11-7-10-7-16-8-11-3-22-2-16 1 13 5 3 3 1 7-4 4-23 3-13 4-21 11h-7l-4-5 3-9 10-10 10-7-3-3v-7l4-5 18-12 16-6 14-4h31l14 3-9-7-5-9v-16l5-5 7 1 4 5 5 8 5 7v-10l4-4h8l8 6 9 8 10 6 3 1h21l10-4 14-9 9-7 10-8 14-10 16-8 15-6 14-3 11-1zm-5 35-8 2 4 2 9-1 12-2v-1zm50 5m1 1 17 17 2 4 15 7 5 1-6-8-11-10-20-11zm-224 10m138 0-8 3-7 6-5 8-5 7v17l2 4 4 1h11l6-3 15-13 10-9v-7l-3-10-9-3zm-149 16m2 1m272 2m-263 1m6 0-3 2 12 5 2-1-6-6zm258 0m1 1m-248 6m2 1m2 1m216 1-5 4-5 5-6 5 8 33 1 2 11 4 12 5 6-1 8-7 7-8v-10l-3-7-5-12-19-10zm-201 8m2 1m56-1-13 4h-31l-10-2 4 4 13 10 10 9 18 18h1l4-19 5-12v-12zm78 2-11 8-9 7-6 4v21l3 9 4 7 11 5 17 6 5-2 13-12 8-7 4-4-6-27-3-9-20-6zm113 50-11 9-5 4-2 1-3 19-6 16 1 5 3 2 6-7 7-11 5-11 5-16 1-11zm-190 21 1 2zm1 2 3 10 8 14 8 10 6 7 1-2-10-21-3-5-10-10zm46 0v2l-4 2-8 5 1 6 12 25 5 4 14 5 13 1 11-9 5-5-3-9-6-12-2-3-15-4-16-6-3-2zm99 43-14 2-18 1-6 5-8 7-5 4 1 3 2 1h9l17-4 10-4 14-8 4-3-2-4z" fill="#E10351"/>
<path transform="translate(1749,20)" d="m0 0h120l10 2 4 5v10l-3 21-4 11-4 4-5 2h-76l-1 8-2 10-1 10h10l3 1 54 1 4 5 1 2v12l-3 19-3 8-4 5-2 1-71 1-1 7-4 24 79 1 6 5 2 4v8l-3 16-2 12-5 8-8 2h-128l-7-6-1-4v-8l6-34 3-15 3-18 3-21 5-25 5-26 4-26 3-12 2-17 4-9z" fill="#E20351"/>
<path transform="translate(1417,20)" d="m0 0h47l6 4 3 4 2 8 4 30 4 26 3 19 4 29 3 14 2 21 3 13 2 19 2 9 2 14v7l-4 6-3 2h-44l-7-6-2-4-3-23v-5h-17l-19-1-22 2-13 28-6 7-4 2h-47l-5-5-1-2v-8l11-23 26-52 11-23 26-52 13-28 13-24 5-6zm12 81-14 32-7 18h27l-2-27-3-23z" fill="#E20351"/>
<path transform="translate(820,20)" d="m0 0h75l14 1 16 5 14 8 11 10 8 13 4 12 2 9v22l-4 18-4 12-8 15-8 10-7 7-6 4-14 8-15 5-11 2-12 1-33 1-1 10-4 25-3 17-6 8-4 2h-43l-5-4-2-3v-10l5-26 3-16 3-19 6-33 2-16 2-6 4-24 3-15 2-18 5-25 4-6 4-3zm42 55-2 6-3 19-4 19v7h28l9-4 7-7 4-8 1-3v-17l-3-6-5-4-13-2z" fill="#E10351"/>
<path transform="translate(1014,20)" d="m0 0h81l15 3 14 5 12 8 9 9 7 12 5 14 1 6v25l-3 14-5 15-8 15-12 13-11 9-16 8-20 5-39 2h-7l-5 32-4 20-4 6-5 4h-43l-5-4-1-2v-19l9-51 2-14 2-7 11-66 4-19 4-24 3-11 3-5zm43 55-3 9-6 36-1 7h11l17-1 12-5 6-7 4-10 1-6v-8l-3-7-7-6-8-2z" fill="#E20351"/>
<path transform="translate(1574,20)" d="m0 0h125l6 3 2 5v13l-5 24-5 8-4 2-79 1-5 30-1 5h64l5 3 4 8-1 8-3 17-3 13-6 5-70 1-2 15-4 20-3 16-2 12-3 11-5 4-2 1h-44l-5-5-1-7 2-18 4-20 4-26 4-16 1-11 4-18 4-26 4-20 4-25 2-8 2-12 2-8 4-3z" fill="#E20351"/>
<path transform="translate(519,20)" d="m0 0h155l6 4 1 2v15l-4 22-3 7-6 5h-51v9l-4 21-4 24-6 32-4 25-8 46-4 9-5 4h-44l-5-4-2-3v-11l4-20 4-25 4-18 1-11 2-8 3-20 2-7 4-26 3-16-46-1-5-3-2-4v-15l4-17 2-9 4-5z" fill="#E10351"/>
<path transform="translate(1189,20)" d="m0 0h153l6 3 3 4v13l-2 7-2 16-4 8-4 3-3 1h-49v8l-4 19-2 16-3 13-4 26-5 26-3 19-4 20-2 13-5 8-4 2h-43l-6-6-1-9 1-3 1-11 4-18 2-15 3-14 7-42 2-10 2-13 3-13 2-14 1-2h-47l-6-5-1-11 2-14 4-19 6-5z" fill="#E20351"/>
<path transform="translate(1930,21)" d="m0 0h43l5 3 2 4v12l-4 20-2 13-5 29-4 21-6 37-2 8-2 15-1 7h69l7 4 1 2v18l-2 9-2 12-4 7-6 3h-123l-6-5-1-9 2-15 4-22 3-17 3-19 4-20 6-37 2-8 3-20 2-8 2-17 3-11 1-7 3-6z" fill="#E20351"/>
<path transform="translate(628,314)" d="m0 0h16l10 3 5 3v2l4 2 4 5 1-1 2-9 7-4h38l11 3 8 4 7 8 4 9 1 6v10l-4 13-9 10-12 5-6 1h-11l-1 16-3 5-6 3h-17l-7-4h-2l-3 3-4 1h-56l-7-6v-23l4-8 4-5 11-7 2-2-12-4-3-2-1 10-6 12-9 7-8 3-7 1h-12v18l-5 5-3 1h-18l-5-3-3-4v-79l4-5 4-2h38l12 3 10 6 5 7 5-5 8-7 9-4zm6 32-4 5v2l4-2 2-2v-3zm69 0v6h6l1-4zm-142 1v5h6l1-4zm68 6m39 11-8 9-4 3 10 3 3 1v-16z" fill="#FDFDFD"/>
<path transform="translate(717,20)" d="m0 0h42l6 5 1 2v13l-4 20-3 17-5 25-2 17-3 16-3 17-4 24-4 19-6 36-3 9-5 4-2 1h-42l-6-4-2-4 1-11 2-13 5-30 4-22 3-19 2-9 1-9 2-8 3-19 2-6 1-13 2-7 2-10 1-11 2-7 2-13 3-6z" fill="#E20351"/>
<path transform="translate(308)" d="m0 0h18l21 3 16 4 20 9 9 6 10 7 14 13 9 11 9 14 8 17 6 18 2 13v33l-3 16-7 21-6 12-7 11-7 9-8 9-8 7-5 4-10 7-10 6-20 8-22 5h-39l-15-4-13-4-17-8-15-9-14-8-18-6-13-3-16-5-12-6-12-9-11-12-6-10-5-13-1-7v-12l2-8 3-2h6l5 5 5 9 4 5 9 7 5 2 5-1v-7l-5-9-15-16-13-12-11-7-10-7-16-8-11-3-22-2-16 1 13 5 3 3 1 7-4 4-23 3-13 4-21 11h-7l-4-5 3-9 10-10 10-7-3-3v-7l4-5 18-12 16-6 14-4h31l14 3-9-7-5-9v-16l5-5 7 1 4 5 5 8 5 7v-10l4-4h8l8 6 9 8 10 6 3 1h21l10-4 14-9 9-7 10-8 14-10 16-8 15-6 14-3 11-1zm0 6-20 3-18 6-16 8-9 6-12 9-14 11-11 7-12 6-3 1h-23l-12-6-9-7-9-8-5-1 1 12 8 13 6 7 10 7 13 6 7 2 9 1h14l15-3 11-6 1 2-1 22-5 12-4 21-5 1-8-7-20-20-10-8-18-12-17-9-24-9-15-4-9-1h-14l-12 2-18 6-10 5-16 12v3l5-1 16-5 12-2h26l17 3 11 4 15 8 14 10 14 11 13 13 10 13 3 7v8l-2 4-5 2-8-1-9-6-6-5-6-8-5-9h-2l-1 5v13l2 8 4 10 6 9 10 11 13 9 12 5 14 4 19 5 15 6 25 15 19 9 18 5 17 2h12l20-2 17-4 17-7 15-9 10-8 12-12 9-11 9-15 5-11 6-18 2-13 1-17-2-23-4-15-6-16-8-14-7-9-9-11-11-10-13-9-16-8-13-5-18-4-9-1zm-178 45m-11 16m2 1m9 3m6 0-3 2 12 5 2-1-6-6zm11 7m2 1m2 1m15 9m2 1m56-1-13 4h-31l-10-2 4 4 13 10 10 9 18 18h1l4-19 5-12v-12z" fill="#FDFDFD"/>
<path transform="translate(1128,322)" d="m0 0h21l3 12 4 24 1 11 5-25 5-19 2-3h21l4 13 6 28 1 7 4-29 3-16 2-3h20l-1 9-17 67-2 3-4 1h-14l-5-3-7-31-2-9-5 26-4 14-2 2-4 1h-14l-3-1-4-13-15-61z" fill="#838485"/>
<path transform="translate(1749,20)" d="m0 0h120l10 2 4 5v10l-3 21-4 11-4 4-5 2h-76l-1 8-2 10-1 10h10l3 1 54 1 4 5 1 2v12l-3 19-3 8-4 5-2 1-71 1-1 7-4 24 79 1 6 5 2 4v8l-3 16-2 12-5 8-8 2h-128l-7-6-1-4v-8l6-34 3-15 3-18 3-21 5-25 5-26 4-26 3-12 2-17 4-9zm5 5-7 2-3 5-5 29-6 34-4 22-6 32-6 37-6 30-1 8v13l2 2 13 1h110l10-2 3-7 4-22v-11l-2-2-4-1h-37l-44-1 6-37 2-3 5-1 66-1 5-5 3-13 2-20-2-4-52-1-19-1 1-12 5-26h62l18-1 4-2 3-7 4-29-3-5-11-1z" fill="#FDFDFD"/>
<path transform="translate(939,320)" d="m0 0h14l13 4 9 8 4 8 2 12v21l-2 11-6 10-9 6-9 3h-18l-11-4-6-4-6-8-2-6-1-8v-20l2-14 5-8 8-7 7-3zm4 26-3 2v27l3 2h6l3-2v-26l-3-3z" fill="#838485"/>
<path transform="translate(1574,20)" d="m0 0h125l6 3 2 5v13l-5 24-5 8-4 2-79 1-5 30-1 5h64l5 3 4 8-1 8-3 17-3 13-6 5-70 1-2 15-4 20-3 16-2 12-3 11-5 4-2 1h-44l-5-5-1-7 2-18 4-20 4-26 4-16 1-11 4-18 4-26 4-20 4-25 2-8 2-12 2-8 4-3zm42 5-44 1-4 4-6 33-6 34-9 50-8 43-6 37v11l5 2h37l5-5 5-25 9-49 72-1 3-3 3-10 3-19v-8l-2-3-3-1-67-1-1-4 4-19 4-21 25-1h44l14-1 2-1 4-14 3-17v-8l-2-3-7-1z" fill="#FDFDFD"/>
<path transform="translate(992,322)" d="m0 0h43l10 4 6 7 4 11v11l-3 8-4 6-4 4 12 22 1 4-1 2-3 1h-15l-5-2-5-8-7-14-4-2h-4l-1 24-6 2-15-1-1-2v-75zm27 25v3h6v-2z" fill="#838485"/>
<path transform="translate(1507,322)" d="m0 0h19l6 8 11 17 8 14 4 9-3-12v-35l1-1h18l1 1v77l-5 2h-12l-5-3-10-15-10-16-5-11v3l1 11v28l-2 2-5 1-13-1-1-1v-77z" fill="#838485"/>
<path transform="translate(1417,20)" d="m0 0h47l6 4 3 4 2 8 4 30 4 26 3 19 4 29 3 14 2 21 3 13 2 19 2 9 2 14v7l-4 6-3 2h-44l-7-6-2-4-3-23v-5h-17l-19-1-22 2-13 28-6 7-4 2h-47l-5-5-1-2v-8l11-23 26-52 11-23 26-52 13-28 13-24 5-6zm3 5-6 3-10 17-12 24-11 23-25 50-11 23-25 51-8 17 1 5 5 2h37l7-3 5-8 12-25 2-2 14-1h21l28 1 3 12 3 21 5 5h39l4-3-1-16-4-24-2-15-3-24-4-21-13-90-4-18-5-4z" fill="#FDFDFD"/>
<path transform="translate(1189,20)" d="m0 0h153l6 3 3 4v13l-2 7-2 16-4 8-4 3-3 1h-49v8l-4 19-2 16-3 13-4 26-5 26-3 19-4 20-2 13-5 8-4 2h-43l-6-6-1-9 1-3 1-11 4-18 2-15 3-14 7-42 2-10 2-13 3-13 2-14 1-2h-47l-6-5-1-11 2-14 4-19 6-5zm43 5-43 1-3 3-5 23-1 13 3 4 36 1h10l4 1v8l-3 19-4 21-8 45-4 23-4 22-2 9-1 10v9l5 3h36l5-3 3-9 4-25 11-59 5-30 7-40 1-3 3-1h41l10-2 3-4 5-27v-8l-3-3-8-1z" fill="#FDFDFD"/>
<path transform="translate(519,20)" d="m0 0h155l6 4 1 2v15l-4 22-3 7-6 5h-51v9l-4 21-4 24-6 32-4 25-8 46-4 9-5 4h-44l-5-4-2-3v-11l4-20 4-25 4-18 1-11 2-8 3-20 2-7 4-26 3-16-46-1-5-3-2-4v-15l4-17 2-9 4-5zm3 5-5 3-2 3-5 26v10l5 3h20l28 1-1 12-6 37-3 14-8 46-5 29-4 22 1 6 4 3h38l5-5 3-9 7-41 7-40 11-62 2-11 1-1 50-1 5-3 2-5 4-25v-9l-5-3z" fill="#FDFDFD"/>
<path transform="translate(792,320)" d="m0 0h13l10 2 8 5 7 8 1 4-5 4-9 4h-5l-5-6-2-1h-13l-3 2v5l7 3 17 3 10 4 7 8 3 10-1 9-4 8-9 7-13 4h-19l-11-4-7-5-4-7v-6l9-4 9-2 5 6 4 2h13l4-1v-6l-4-3-19-3-9-3-9-8-3-9v-8l3-9 5-6 10-5z" fill="#838485"/>
<path transform="translate(534,322)" d="m0 0h43l10 4 8 9 3 11v8l-3 10-4 6-9 6-4 1-22 1-1 22-6 2-15-1-1-1v-77zm27 25v5h6l1-4z" fill="#838485"/>
<path transform="translate(676,322)" d="m0 0h42l9 3 7 6 4 7 1 4v16l-5 10-8 7-6 2-22 1-1 20-1 3-4 1-16-1-1-1v-77zm27 24v6h6l1-4z" fill="#838485"/>
<path transform="translate(842,322)" d="m0 0h42l10 4 6 5 4 8 1 3v16l-5 10-7 6-7 3-22 1-1 20-2 3-4 1h-8l-7-1-1-1v-77zm27 25v5h6l1-4z" fill="#838485"/>
<path transform="translate(820,20)" d="m0 0h75l14 1 16 5 14 8 11 10 8 13 4 12 2 9v22l-4 18-4 12-8 15-8 10-7 7-6 4-14 8-15 5-11 2-12 1-33 1-1 10-4 25-3 17-6 8-4 2h-43l-5-4-2-3v-10l5-26 3-16 3-19 6-33 2-16 2-6 4-24 3-15 2-18 5-25 4-6 4-3zm3 5-6 3-3 5-5 25-4 27-6 33-10 58-3 17-6 32v12l4 3h37l6-4 4-16 7-40v-2l42-2 18-3 17-6 12-8 10-9 8-11 7-14 5-17 1-7v-22l-4-17-6-11-9-10-11-7-11-5-12-3-16-1z" fill="#FDFDFD"/>
<path transform="translate(1014,20)" d="m0 0h81l15 3 14 5 12 8 9 9 7 12 5 14 1 6v25l-3 14-5 15-8 15-12 13-11 9-16 8-20 5-39 2h-7l-5 32-4 20-4 6-5 4h-43l-5-4-1-2v-19l9-51 2-14 2-7 11-66 4-19 4-24 3-11 3-5zm3 5-6 3-3 9-15 85-13 74-5 27v14l4 3h37l4-2 4-10 8-46 1-3 3-1 13-1 26-1 18-3 12-4 13-7 12-11 7-8 9-17 6-19 1-7v-20l-2-10-7-16-7-9-9-8-14-7-16-4-7-1z" fill="#FDFDFD"/>
<path transform="translate(1239,322)" d="m0 0h53l2 5v8l-2 6-32 1-1 9h22l6 1 1 3v11l-2 5h-27v11h34l1 1v17l-5 2h-41l-10-1-1-1v-76z" fill="#838485"/>
<path transform="translate(1440,322)" d="m0 0h54l1 1v17l-1 1-32 1-1 9h22l6 2 1 5v10l-2 3h-27v11h34l1 1v17l-7 2h-33l-16-1-1-1v-77z" fill="#838485"/>
<path transform="translate(1930,21)" d="m0 0h43l5 3 2 4v12l-4 20-2 13-5 29-4 21-6 37-2 8-2 15-1 7h69l7 4 1 2v18l-2 9-2 12-4 7-6 3h-123l-6-5-1-9 2-15 4-22 3-17 3-19 4-20 6-37 2-8 3-20 2-8 2-17 3-11 1-7 3-6zm1 5-3 3-4 18-4 25-4 21-3 15-3 21-7 36-7 43-3 14v15l5 3h116l6-3 3-9 3-18v-12l-7-3h-71l1-10 5-27 7-40 3-19 6-33 4-23 1-14-3-3z" fill="#FDFDFD"/>
<path transform="translate(630,320)" d="m0 0h11l10 3 6 4 6 7 2 6v15l-5 10-7 6-12 5-12 4h-2v3h35l2 2v14l-2 2-8 1h-39l-10-1-1-1v-19l4-8 9-7 21-10 3-4 1-7-3-4h-8l-5 5-2 4-3 1-16-6-1-5 5-9 8-7z" fill="#838485"/>
<path transform="translate(717,20)" d="m0 0h42l6 5 1 2v13l-4 20-3 17-5 25-2 17-3 16-3 17-4 24-4 19-6 36-3 9-5 4-2 1h-42l-6-4-2-4 1-11 2-13 5-30 4-22 3-19 2-9 1-9 2-8 3-19 2-6 1-13 2-7 2-10 1-11 2-7 2-13 3-6zm1 5-5 5-5 25-3 18-4 23-3 15-2 12-7 40-6 36-4 21-2 11 1 7 5 2h37l5-5 3-11 6-35 4-20 2-14 5-30 3-15 5-28 7-38 1-7v-9l-5-3z" fill="#FDFDFD"/>
<path transform="translate(1368,322)" d="m0 0h63l1 3v14l-2 2-19 1-1 58-1 1h-20l-1-1-1-58-19-1-1-1v-17z" fill="#838485"/>
<path transform="translate(1300,322)" d="m0 0h62l2 2v15l-2 2-19 1-1 58-6 2-15-1-1-2v-58h-20l-1-1v-17z" fill="#838485"/>
<path transform="translate(1060,322)" d="m0 0h63l1 1v17l-1 1h-20v58l-2 2h-19l-1-1-1-59h-20l-1-2v-14z" fill="#838485"/>
<path transform="translate(301,85)" d="m0 0 13 1 19 5 5 5 7 28 1 5v7l-5 5-15 14-9 8-4 1-12-3-18-7-6-5-5-10-2-11v-19l11-10 8-6 10-7zm1 6-11 8-9 7-6 4v21l3 9 4 7 11 5 17 6 5-2 13-12 8-7 4-4-6-27-3-9-20-6z" fill="#FDFDFD"/>
<path transform="translate(272,158)" d="m0 0 7 1 8 4 15 5 11 3 6 9 8 17 1 5-8 8-9 7-4 3h-9l-16-4-10-5-5-6-11-23-2-5v-6l7-6zm0 6v2l-4 2-8 5 1 6 12 25 5 4 14 5 13 1 11-9 5-5-3-9-6-12-2-3-15-4-16-6-3-2z" fill="#FDFDFD"/>
<path transform="translate(366,75)" d="m0 0 7 1 25 12 5 8 6 13v17l-7 9-8 7-5 3-9-1-25-10-6-21-3-14v-7l15-14zm1 6-5 4-5 5-6 5 8 33 1 2 11 4 12 5 6-1 8-7 7-8v-10l-3-7-5-12-19-10z" fill="#FDFDFD"/>
<path transform="translate(1054,70)" d="m0 0h26l10 2 6 4 5 6 2 6v14l-4 13-7 9-8 5-7 2-14 1h-20l-1-1v-8l7-40 3-12zm3 5-3 9-6 36-1 7h11l17-1 12-5 6-7 4-10 1-6v-8l-3-7-7-6-8-2z" fill="#FDFDFD"/>
<path transform="translate(860,70)" d="m0 0h22l12 1 6 4 5 6 2 4 1 17-3 10-5 8-8 7-8 4h-36l-1-1v-8l9-48zm2 5-2 6-3 19-4 19v7h28l9-4 7-7 4-8 1-3v-17l-3-6-5-4-13-2z" fill="#FDFDFD"/>
<path transform="translate(264,46)" d="m0 0h12l13 3 4 3 3 10v13l-11 11-10 8-9 7-3 1h-17l-7-2-1-1-1-7v-16l4-8 6-9 4-5 5-5zm4 5-8 3-7 6-5 8-5 7v17l2 4 4 1h11l6-3 15-13 10-9v-7l-3-10-9-3z" fill="#FDFDFD"/>
<path transform="translate(1432,82)" d="m0 0 2 2 2 17 3 30 1 8v16l-1 1-8 1h-22l-8-1 1-6 12-29 14-33zm-3 19-14 32-7 18h27l-2-27-3-23z" fill="#FDFDFD"/>
<path transform="translate(413,134)" d="m0 0 6 2 2 3v12l-4 15-8 18-10 14-5 5-4 1-8-7-1-5 6-16 3-16 1-7 13-11 5-5zm2 7-11 9-5 4-2 1-3 19-6 16 1 5 3 2 6-7 7-11 5-11 5-16 1-11z" fill="#FDFDFD"/>
<path transform="translate(370,201)" d="m0 0h7l8 8-1 4-11 8-15 8-17 5-15 2-7-1-7-8 2-4 10-8 10-9 9-2 21-2zm1 6-14 2-18 1-6 5-8 7-5 4 1 3 2 1h9l17-4 10-4 14-8 4-3-2-4z" fill="#FDFDFD"/>
<path transform="translate(216,146)" d="m0 0h6l8 12 7 9 8 8 13 27 2 5-1 4-1 1h-7l-8-7-9-11-8-13-5-11-5-16zm9 16 1 2zm1 2 3 10 8 14 8 10 6 7 1-2-10-21-3-5-10-10z" fill="#FDFDFD"/>
<path transform="translate(350,35)" d="m0 0 9 1 18 10 13 11 5 6 5 5 6 10-1 4-5-1-23-11-8-5-12-13-11-9 1-4zm3 5m1 1 17 17 2 4 15 7 5 1-6-8-11-10-20-11z" fill="#FDFDFD"/>
<path transform="translate(303,29)" d="m0 0h30l8 2v4l-5 5-22 3-10 2-9-1-18-5 1-3 15-5zm0 6-8 2 4 2 9-1 12-2v-1z" fill="#FDFDFD"/>
<path transform="translate(941,340)" d="m0 0h11l5 4 1 2v31l-4 5-2 1h-12l-5-4-1-2v-31l5-5zm2 6-3 2v27l3 2h6l3-2v-26l-3-3z" fill="#FDFDFD"/>
<path transform="translate(42,100)" d="m0 0h8l10 2 8 4 1 2-18 1-17 4-23 11-5 3h-2l2-4 8-9 13-9 10-4z" fill="#E20351"/>
<path transform="translate(109,35)" d="m0 0 4 1 6 11 11 12 8 7-4 1-11-4-11-8-3-5-1-4v-7z" fill="#E20351"/>
<path transform="translate(556,341)" d="m0 0h12l5 3 2 4-1 6-2 3-3 1h-13l-1-1v-15zm5 6v5h6l1-4z" fill="#FDFDFD"/>
<path transform="translate(864,341)" d="m0 0h12l5 3 1 2v8l-5 4h-14v-16zm5 6v5h6l1-4z" fill="#FDFDFD"/>
<path transform="translate(698,341)" d="m0 0h12l5 3 1 2v8l-5 4h-13l-1-1v-15zm5 5v6h6l1-4z" fill="#FDFDFD"/>
<path transform="translate(1013,341)" d="m0 0h12l5 2 2 3-1 7-3 3h-15l-1-1v-13zm6 6v3h6v-2z" fill="#FDFDFD"/>
</g>
</svg>
