<?xml version="1.0" encoding="UTF-8"?>
<!DOCTYPE svg PUBLIC "-//W3C//DTD SVG 1.1//EN" "http://www.w3.org/Graphics/SVG/1.1/DTD/svg11.dtd">
<svg xmlns="http://www.w3.org/2000/svg" version="1.1" width="100px" height="100px" style="shape-rendering:geometricPrecision; text-rendering:geometricPrecision; image-rendering:optimizeQuality; fill-rule:evenodd; clip-rule:evenodd" xmlns:xlink="http://www.w3.org/1999/xlink">
<g><path style="opacity:1" fill="#fefffe" d="M 90.5,1.5 C 93.111,8.31399 91.2777,13.6473 85,17.5C 87.8748,12.7151 89.7081,7.38181 90.5,1.5 Z"/></g>
<g><path style="opacity:1" fill="#fefffe" d="M 93.5,10.5 C 94.7217,18.5998 92.055,25.4331 85.5,31C 75.4768,37.5893 64.4768,41.256 52.5,42C 54.7581,44.5849 56.5914,47.4182 58,50.5C 59.586,51.376 61.086,52.376 62.5,53.5C 66.4959,41.6715 74.1626,37.6715 85.5,41.5C 79.6475,42.0454 75.1475,44.7121 72,49.5C 71.1948,58.2592 69.8615,66.9259 68,75.5C 56.1756,95.9175 39.6756,100.751 18.5,90C -0.166667,72 -0.166667,54 18.5,36C 28.8889,32.3062 38.5555,27.3062 47.5,21C 54.3694,18.5513 60.3694,19.8846 65.5,25C 62.1751,24.3153 58.8418,24.6486 55.5,26C 52.8333,27.6667 52.8333,29.3333 55.5,31C 67.3666,32.9099 77.8666,30.0765 87,22.5C 89.9542,18.9249 92.1208,14.9249 93.5,10.5 Z M 34.5,35.5 C 38.1879,35.7811 41.8546,36.2811 45.5,37C 47.8474,37.7119 49.8474,38.8786 51.5,40.5C 51,40.8333 50.5,41.1667 50,41.5C 45.539,40.7529 41.039,40.2529 36.5,40C 34.7536,39.5291 33.087,38.8624 31.5,38C 32.5707,37.1482 33.5707,36.3149 34.5,35.5 Z M 28.5,40.5 C 32.263,40.8572 35.9296,41.6905 39.5,43C 40.8333,45.3333 40.8333,47.6667 39.5,50C 36.0717,51.4614 32.905,53.2947 30,55.5C 22.1878,54.8369 19.8545,51.1703 23,44.5C 25.0153,43.3034 26.8487,41.9701 28.5,40.5 Z M 17.5,45.5 C 20.2495,48.4272 20.7495,51.7605 19,55.5C 17.5155,59.8245 14.6822,62.4911 10.5,63.5C 10.1129,56.3341 12.4462,50.3341 17.5,45.5 Z M 37.5,52.5 C 48.9038,52.4028 52.7371,57.7361 49,68.5C 43.8203,73.6189 38.487,73.6189 33,68.5C 31.8157,64.5511 31.4823,60.5511 32,56.5C 34.167,55.5119 36.0003,54.1786 37.5,52.5 Z M 56.5,52.5 C 63.3205,55.422 65.4872,60.422 63,67.5C 60.0011,72.2155 56.6678,72.5489 53,68.5C 51.4322,62.3751 52.5989,57.0418 56.5,52.5 Z M 10.5,65.5 C 12.288,65.2148 13.9547,65.5481 15.5,66.5C 16.4229,68.9242 17.9229,70.9242 20,72.5C 21.6875,75.6241 21.8541,78.7908 20.5,82C 17.5397,81.3941 15.373,79.5608 14,76.5C 12.3262,72.9793 11.1596,69.3127 10.5,65.5 Z M 29.5,70.5 C 33.3536,70.841 36.8536,72.1744 40,74.5C 40.6667,77.1667 40.6667,79.8333 40,82.5C 34.6853,87.5158 29.3519,87.5158 24,82.5C 22.0385,76.5773 23.8719,72.5773 29.5,70.5 Z M 62.5,71.5 C 61.1978,76.7551 58.3645,81.0884 54,84.5C 53.6258,83.5838 53.1258,82.7504 52.5,82C 54.3628,79.636 56.0295,77.136 57.5,74.5C 58.9397,73.0476 60.6064,72.0476 62.5,71.5 Z M 48.5,83.5 C 49.5,83.5 50.5,83.5 51.5,83.5C 51.4392,86.0495 50.1059,87.5495 47.5,88C 42.8871,89.6466 38.2205,89.8132 33.5,88.5C 38.1569,85.4791 43.1569,83.8124 48.5,83.5 Z"/></g>
<g><path style="opacity:1" fill="#fefffe" d="M 85.5,34.5 C 87.8421,34.5041 89.8421,35.3375 91.5,37C 88.1667,37.6667 84.8333,37.6667 81.5,37C 82.8584,36.0656 84.1917,35.2323 85.5,34.5 Z"/></g>
</svg>
