<svg xmlns="http://www.w3.org/2000/svg" width="300" height="232.79" viewBox="0 0 300 232.79">
  <g id="Mastercard" transform="translate(-0.647 -0.832)">
    <path id="Path_112" data-name="Path 112" d="M45.5,106.312V90.854c0-5.926-3.606-9.788-9.785-9.788a10.15,10.15,0,0,0-8.754,4.378,9,9,0,0,0-8.241-4.378,8.308,8.308,0,0,0-7.21,3.606v-3.1H6.1v24.735H11.5V92.658c0-4.378,2.319-6.442,5.922-6.442s5.407,2.317,5.407,6.442v13.653h5.407V92.658c0-4.378,2.575-6.442,5.922-6.442,3.606,0,5.407,2.317,5.407,6.442v13.653H45.5Zm80.079-24.735h-8.751V74.108h-5.41v7.471H106.52v4.894h4.894V97.812c0,5.667,2.316,9.016,8.5,9.016a14.419,14.419,0,0,0,6.694-1.8l-1.544-4.64a8.461,8.461,0,0,1-4.635,1.288c-2.575,0-3.606-1.545-3.606-4.122V86.473h8.754V81.582Zm45.835-.513a7.254,7.254,0,0,0-6.438,3.609v-3.1h-5.407v24.735h5.407V92.4c0-4.122,1.8-6.442,5.15-6.442a15.1,15.1,0,0,1,3.347.516l1.547-5.151a16.894,16.894,0,0,0-3.606-.259ZM102.144,83.64c-2.575-1.8-6.182-2.577-10.042-2.577-6.182,0-10.3,3.093-10.3,7.987,0,4.124,3.091,6.442,8.5,7.214l2.575.259c2.832.513,4.376,1.288,4.376,2.577,0,1.8-2.06,3.09-5.663,3.09a14.208,14.208,0,0,1-8.241-2.577l-2.575,4.124a18.206,18.206,0,0,0,10.557,3.09c7.21,0,11.332-3.346,11.332-7.987,0-4.378-3.35-6.7-8.5-7.474l-2.572-.257c-2.319-.257-4.122-.772-4.122-2.317,0-1.8,1.8-2.833,4.638-2.833a18.556,18.556,0,0,1,7.723,2.061l2.319-4.381Zm143.682-2.577a7.254,7.254,0,0,0-6.438,3.609v-3.1h-5.407v24.735h5.407V92.4c0-4.122,1.8-6.442,5.15-6.442a15.1,15.1,0,0,1,3.347.516l1.547-5.151a16.894,16.894,0,0,0-3.606-.259ZM176.819,93.947c0,7.471,5.148,12.884,13.13,12.884a12.814,12.814,0,0,0,8.757-2.836l-2.575-4.378a10.413,10.413,0,0,1-6.438,2.315c-4.376,0-7.469-3.09-7.469-7.984a7.6,7.6,0,0,1,7.469-7.987,10.416,10.416,0,0,1,6.438,2.317l2.575-4.378a12.8,12.8,0,0,0-8.757-2.836c-7.982,0-13.132,5.41-13.132,12.884Zm49.952,0V81.579h-5.407v3.093a9.3,9.3,0,0,0-7.726-3.609c-6.951,0-12.36,5.41-12.36,12.884s5.407,12.884,12.36,12.884c3.606,0,6.182-1.291,7.726-3.609v3.09h5.407V93.947Zm-19.827,0c0-4.381,2.832-7.987,7.469-7.987,4.376,0,7.466,3.346,7.466,7.987,0,4.378-3.091,7.987-7.469,7.987A7.59,7.59,0,0,1,206.944,93.947ZM142.313,81.063c-7.21,0-12.36,5.153-12.36,12.884s5.15,12.884,12.617,12.884a15.73,15.73,0,0,0,10.042-3.352l-2.572-3.865a12.294,12.294,0,0,1-7.21,2.577c-3.347,0-6.7-1.545-7.469-5.926h18.283V94.2c.256-7.987-4.376-13.14-11.329-13.14Zm0,4.638c3.344,0,5.663,2.064,6.179,5.926H135.616A6.526,6.526,0,0,1,142.313,85.7Zm134.155,8.246V71.788h-5.407V84.672a9.3,9.3,0,0,0-7.726-3.609c-6.954,0-12.36,5.41-12.36,12.884s5.407,12.884,12.36,12.884c3.6,0,6.179-1.291,7.723-3.609v3.09h5.407V93.947Zm-19.827,0c0-4.381,2.832-7.987,7.466-7.987,4.376,0,7.469,3.346,7.469,7.987,0,4.378-3.094,7.987-7.469,7.987a7.592,7.592,0,0,1-7.469-7.987Zm-180.765,0V81.579H70.47v3.093a9.292,9.292,0,0,0-7.723-3.609c-6.954,0-12.36,5.41-12.36,12.884s5.407,12.884,12.36,12.884c3.6,0,6.179-1.291,7.726-3.609v3.09h5.407V93.947Zm-20.083,0c0-4.381,2.834-7.987,7.469-7.987,4.376,0,7.466,3.346,7.466,7.987,0,4.378-3.091,7.987-7.469,7.987a7.592,7.592,0,0,1-7.466-7.987Z" transform="translate(9.75 126.792)"/>
    <path id="Path_113" data-name="Path 113" d="M39.913,7.946h81.158V153.773H39.913Z" transform="translate(70.154 12.724)" fill="#ff5f00"/>
    <path id="Path_114" data-name="Path 114" d="M115.3,93.583A93,93,0,0,1,150.6,20.67,92.718,92.718,0,1,0,93.4,186.336,92.192,92.192,0,0,0,150.6,166.5a92.616,92.616,0,0,1-35.3-72.915Z" transform="translate(0)" fill="#eb001b"/>
    <path id="Path_115" data-name="Path 115" d="M204.463,93.583A92.656,92.656,0,0,1,54.511,166.5a92.233,92.233,0,0,0,35.3-72.915,92.993,92.993,0,0,0-35.3-72.912A92.654,92.654,0,0,1,204.46,93.583Z" transform="translate(96.184)" fill="#f79e1b"/>
  </g>
</svg>
